<svg width="45" height="40" viewBox="0 0 45 40" fill="none" version="1.1"
   xmlns:xlink="http://www.w3.org/1999/xlink"
   xmlns="http://www.w3.org/2000/svg"
   xmlns:svg="http://www.w3.org/2000/svg">
   <g fill="url(#paint0_linear_735_12575x)">
      <path d="M 8.6640625,0.07226562 C 7.6950278,0.18445662 6.6943662,0.43426725 5.6914062,0.87109375 L 5.65625,0.88671875 5.625,0.90234375 C 3.89743,1.7684818 2.9248119,3.0934112 2.5136719,4.5820312 c -0.39509,1.43048 -0.252195,2.9262019 0.046875,4.2011719 0.30224,1.2884499 0.7900162,2.4582219 1.1914062,3.2949219 0.08542,0.178 0.1673607,0.343388 0.2441407,0.492187 -0.6085,0.5402 -1.3663082,1.011613 -2.0800782,1.382813 -1.42154298,0.7393 -2.38612548,2.503816 -1.67968748,4.228516 5.53339498,13.5093 16.27410288,19.872771 22.72070288,21.701171 1.6063,0.4556 3.142391,-0.463915 3.712891,-1.853515 l 2.037109,-4.960938 c 1.9682,0.9486 4.315635,1.930366 6.615235,2.072266 1.2252,0.0756 2.481675,-0.08333 3.671875,-0.640625 1.1968,-0.5604 2.242715,-1.484794 3.103515,-2.808594 l 0.0078,-0.01172 0.0078,-0.01172 c 0.9275,-1.4925 1.869163,-3.511097 2.414063,-5.591797 0.5351,-2.0438 0.743753,-4.361747 -0.06055,-6.310547 -0.6831,-1.6552 -1.44581,-2.926109 -2.099609,-3.974609 -0.0739,-0.1185 -0.145744,-0.23325 -0.214844,-0.34375 -0.5273,-0.8423 -0.916328,-1.464472 -1.173828,-2.076172 0.0197,-0.0329 0.04688,-0.07566 0.08398,-0.13086 0.0088,-0.0131 0.01855,-0.02827 0.03125,-0.04687 0.093,-0.1354 0.281591,-0.408753 0.400391,-0.689453 0.1656,-0.3913 0.2785,-0.962078 0,-1.580078 L 41.445312,10.8125 41.375,10.712891 c -0.2995,-0.4345 -0.670191,-0.8978304 -0.962891,-1.2500004 0.9454,-2.16602 1.2805,-4.0058087 1,-5.5117187 -0.3368,-1.80807 -1.522737,-2.9385629 -3.023437,-3.4199219 -1.4165,-0.4543869 -3.055822,-0.32418 -4.544922,0.125 -1.2316,0.371493 -2.456747,0.9878606 -3.498047,1.8066406 -3.3385,-1.18706 -7.663409,-1.56188148 -11.849609,-0.6171875 -1.0016,0.20907 -1.212269,0.2012382 -1.355469,0.1738281 -0.0772,-0.01479 -0.188441,-0.047917 -0.431641,-0.1542968 -0.1443,-0.06316 -0.279512,-0.125915 -0.445312,-0.203125 -0.1506,-0.07018 -0.326041,-0.1534925 -0.556641,-0.2578125 C 14.189856,0.63298337 11.571167,-0.26430738 8.6640625,0.07226562 Z" fill="#151724" />
      <path fill-rule="evenodd" clip-rule="evenodd" d="m 5.66026,12.7809 c 0,0 -4.93681,-7.91527 0.57507,-10.67872 3.49684,-1.523001 7.03877,-0.43044 8.88067,0.51311 0.2073,0.09362 0.3897,0.17834 0.5532,0.25431 1.2342,0.57347 1.3957,0.64852 3.1176,0.28849 4.259,-0.96359 8.6636,-0.46254 11.8307,0.85161 3.9762,-3.788677 12.8993,-3.9665996 8.2037,5.67168 0,0 0.8819,0.98652 1.4362,1.79072 0.148,0.3284 -0.0543,0.6268 -0.2741,0.9509 -0.252,0.3718 -0.527,0.7773 -0.3229,1.3008 0.3048,0.7816 0.7845,1.5467 1.3356,2.4255 0.6945,1.1076 1.5022,2.3958 2.2162,4.1257 1.2805,3.1027 -0.522,7.9021 -2.2529,10.6875 -2.9649,4.5593 -7.8746,2.7433 -11.9024,0.7783 -0.5693,-0.2777 -1.2582,-0.0239 -1.4976,0.559 l -2.1443,5.2228 c -0.3401,0.8282 -1.2186,1.3127 -2.0852,1.0669 C 17.2243,36.8579 6.84715,30.7486 1.49242,17.6755 1.09816,16.713 1.61675,15.6261 2.54417,15.1437 3.57436,14.608 4.83783,13.8063 5.66026,12.7809 Z M 40.4126,9.46281 c 0.2927,0.35217 0.6636,0.81579 0.9631,1.25029 l 0.0688,0.0998 0.0497,0.1103 c 0.2785,0.618 0.165,1.1896 -6e-4,1.5809 -0.1188,0.2807 -0.3061,0.5536 -0.3991,0.689 -0.0127,0.0186 -0.0237,0.0345 -0.0325,0.0476 -0.0371,0.0552 -0.0642,0.0984 -0.0839,0.1313 0.2575,0.6117 0.6466,1.2333 1.1739,2.0756 0.0691,0.1105 0.1407,0.2248 0.2146,0.3433 0.6538,1.0485 1.4163,2.3194 2.0994,3.9746 0.8043,1.9488 0.5955,4.2666 0.0604,6.3104 -0.5449,2.0807 -1.4864,4.0998 -2.4139,5.5923 l -0.0073,0.0117 -0.0075,0.0116 c -0.8608,1.3238 -1.9076,2.2479 -3.1044,2.8083 -1.1902,0.5573 -2.4455,0.7159 -3.6707,0.6403 -2.2996,-0.1419 -4.6473,-1.1239 -6.6155,-2.0725 l -2.0374,4.9622 c -0.5705,1.3896 -2.106,2.308 -3.7123,1.8524 C 16.5108,38.0538 5.77065,31.691 0.237255,18.1817 -0.469183,16.457 0.493697,14.6922 1.91524,13.9529 2.62901,13.5817 3.38764,13.1103 3.99614,12.5701 3.91936,12.4213 3.83708,12.2569 3.75166,12.0789 3.35027,11.2422 2.86347,10.0711 2.56123,8.78265 2.26216,7.50768 2.11837,6.01168 2.51346,4.5812 2.9246,3.09258 3.89677,1.76833 5.62434,0.902192 L 5.65714,0.885745 5.6908,0.871086 C 9.70264,-0.87622 13.6841,0.376632 15.707,1.40505 c 0.2306,0.10432 0.4064,0.18621 0.557,0.25639 0.1658,0.07721 0.3012,0.14026 0.4455,0.20342 0.2432,0.10638 0.3546,0.13993 0.4318,0.15472 0.1432,0.02741 0.3539,0.03423 1.3555,-0.17484 4.1862,-0.944694 8.5101,-0.56811 11.8486,0.61895 1.0413,-0.81878 2.2661,-1.43637 3.4977,-1.807863 1.4891,-0.44918 3.1284,-0.5790629 4.5449,-0.124676 1.5007,0.481359 2.687,1.612649 3.0238,3.420719 0.2805,1.50591 -0.0538,3.34492 -0.9992,5.51094 z"/>
      <path fill-rule="evenodd" clip-rule="evenodd" d="m 5.66026,12.7809 c 0,0 -4.93681,-7.91527 0.57507,-10.67872 3.49684,-1.523001 7.03877,-0.43044 8.88067,0.51311 0.2073,0.09362 0.3897,0.17834 0.5532,0.25431 1.2342,0.57347 1.3957,0.64852 3.1176,0.28849 4.259,-0.96359 8.6636,-0.46254 11.8307,0.85161 3.9762,-3.788677 12.8993,-3.9665996 8.2037,5.67168 0,0 0.8819,0.98652 1.4362,1.79072 0.148,0.3284 -0.0543,0.6268 -0.2741,0.9509 -0.252,0.3718 -0.527,0.7773 -0.3229,1.3008 0.3048,0.7816 0.7845,1.5467 1.3356,2.4255 0.6945,1.1076 1.5022,2.3958 2.2162,4.1257 1.2805,3.1027 -0.522,7.9021 -2.2529,10.6875 -2.9649,4.5593 -7.8746,2.7433 -11.9024,0.7783 -0.5693,-0.2777 -1.2582,-0.0239 -1.4976,0.559 l -2.1443,5.2228 c -0.3401,0.8282 -1.2186,1.3127 -2.0852,1.0669 C 17.2243,36.8579 6.84715,30.7486 1.49242,17.6755 1.09816,16.713 1.61675,15.6261 2.54417,15.1437 3.57436,14.608 4.83783,13.8063 5.66026,12.7809 Z M 40.4126,9.46281 c 0.2927,0.35217 0.6636,0.81579 0.9631,1.25029 l 0.0688,0.0998 0.0497,0.1103 c 0.2785,0.618 0.165,1.1896 -6e-4,1.5809 -0.1188,0.2807 -0.3061,0.5536 -0.3991,0.689 -0.0127,0.0186 -0.0237,0.0345 -0.0325,0.0476 -0.0371,0.0552 -0.0642,0.0984 -0.0839,0.1313 0.2575,0.6117 0.6466,1.2333 1.1739,2.0756 0.0691,0.1105 0.1407,0.2248 0.2146,0.3433 0.6538,1.0485 1.4163,2.3194 2.0994,3.9746 0.8043,1.9488 0.5955,4.2666 0.0604,6.3104 -0.5449,2.0807 -1.4864,4.0998 -2.4139,5.5923 l -0.0073,0.0117 -0.0075,0.0116 c -0.8608,1.3238 -1.9076,2.2479 -3.1044,2.8083 -1.1902,0.5573 -2.4455,0.7159 -3.6707,0.6403 -2.2996,-0.1419 -4.6473,-1.1239 -6.6155,-2.0725 l -2.0374,4.9622 c -0.5705,1.3896 -2.106,2.308 -3.7123,1.8524 C 16.5108,38.0538 5.77065,31.691 0.237255,18.1817 -0.469183,16.457 0.493697,14.6922 1.91524,13.9529 2.62901,13.5817 3.38764,13.1103 3.99614,12.5701 3.91936,12.4213 3.83708,12.2569 3.75166,12.0789 3.35027,11.2422 2.86347,10.0711 2.56123,8.78265 2.26216,7.50768 2.11837,6.01168 2.51346,4.5812 2.9246,3.09258 3.89677,1.76833 5.62434,0.902192 L 5.65714,0.885745 5.6908,0.871086 C 9.70264,-0.87622 13.6841,0.376632 15.707,1.40505 c 0.2306,0.10432 0.4064,0.18621 0.557,0.25639 0.1658,0.07721 0.3012,0.14026 0.4455,0.20342 0.2432,0.10638 0.3546,0.13993 0.4318,0.15472 0.1432,0.02741 0.3539,0.03423 1.3555,-0.17484 4.1862,-0.944694 8.5101,-0.56811 11.8486,0.61895 1.0413,-0.81878 2.2661,-1.43637 3.4977,-1.807863 1.4891,-0.44918 3.1284,-0.5790629 4.5449,-0.124676 1.5007,0.481359 2.687,1.612649 3.0238,3.420719 0.2805,1.50591 -0.0538,3.34492 -0.9992,5.51094 z"/>
      <path d="M 32.0663,4.54289 C 32.914,3.78461 35.6348,2.41543 37.7045,3.13841 35.0735,3.26092 34.4143,5.80617 32.0663,4.54289 Z" />
      <path d="M 5.78532,18.0764 C 5.37186,16.6812 4.32985,15.2624 2.58065,16.6771 6.15397,25.9463 12.4839,30.8878 12.4839,30.8878 9.11356,27.3778 6.91794,21.4114 5.78532,18.0764 Z"/>
      <path d="m 20.5764,24.4459 c 1.744,1.5186 5.0218,1.6201 9.9565,1.4246 -2.2436,1.2405 -5.9007,1.1997 -5.9007,1.1997 1.6518,1.1097 5.0436,2.402 8.5378,2.5864 3.4942,0.1844 6.059,-0.7377 6.0537,-3.8702 0,-3.2677 -5.7258,-6.8979 -18.6473,-1.3405 z"/>
      <path d="m 42.3868,22.4401 c -0.6977,0.4843 -1.4873,1.7155 -1.7289,3.2262 -1.0492,6.1484 2.2273,0.0659 1.7289,-3.2262 z" />
      <path d="m 29.6606,30.2835 c 2.7128,1.43 8.1199,3.8564 10.2668,-0.2126 l -0.161,-0.1658 c -0.0817,-0.0843 -0.2085,-0.1062 -0.3155,-0.057 -2.3018,1.0575 -5.7782,1.4232 -9.7903,0.4354 z" />
      <path d="m 31.7595,14.2281 c 0.6358,1.7414 1.4278,3.7516 2.1246,5.0491 0.3885,0.7233 1.139,1.1368 1.9595,1.231 3.5621,0.4088 4.6788,0.0806 5.3806,-0.2369 0.3169,-0.1434 0.489,-0.4983 0.2951,-0.7855 0,0 -2.7636,-4.5661 -4.1299,-6.3462 -0.7492,-1.0878 -1.6383,-2.2123 0.7538,-2.1698 C 31.5135,4.1627 25.4427,3.07132 18.3859,4.60737 17.0137,4.87495 16.2646,4.67873 14.8444,3.97111 13.3283,3.20999 11.1711,2.34778 8.38464,2.83534 10.3673,4.12042 12.0103,6.141 13.1588,7.90386 c 1.4413,2.21244 3.8851,3.83744 6.5326,3.64204 l 6.9189,-0.5106 c 2.1589,-0.1593 4.4117,1.1731 5.1492,3.1928 z" />
      <path d="m 22.3994,12.7023 -5.2462,0.313 c -10.10918,0.7461 -5.0484,11.9719 7.2749,8.6178 6.6788,-1.8178 7.7496,-3.0217 6.3343,-6.2568 -0.2165,-0.3867 -0.6478,-0.6064 -1.0933,-0.5893 -3.3003,0.1264 -5.1705,-0.6647 -5.8935,-1.3994 -0.369,-0.375 -0.849,-0.7167 -1.3762,-0.6853 z" />
   </g>
   <defs>
      <linearGradient id="paint0_linear_735_12575x" x1="41.5" y1="-2.5" x2="17" y2="29.5" gradientUnits="userSpaceOnUse">
         <stop stop-color="#FF8800"/>
         <stop offset="1" stop-color="#FF4800"/>
      </linearGradient>
   </defs>
</svg>
