<svg xmlns="http://www.w3.org/2000/svg" width="155" height="40" viewBox="0 0 155 40" fill="none"><g fill="white"><path d="M93.7948 31.5346V4H98.7808V31.5346H93.7948Z"></path><path fill-rule="evenodd" clip-rule="evenodd" d="M76.6919 30.6814C78.2241 31.5605 80.0289 32 82.1064 32C84.4956 32 86.5211 31.4183 88.1831 30.2548C89.8699 29.0923 90.9991 27.5038 91.5708 25.4893H86.3573C86.0566 26.2459 85.5746 26.8519 84.9111 27.3075C84.1839 27.7987 83.262 28.0443 82.1454 28.0443C80.6652 28.0443 79.4706 27.5919 78.5617 26.687C77.6788 25.7562 77.1853 24.386 77.0815 22.5762H91.8447V21.4515C91.8447 19.1247 91.4422 17.1339 90.6372 15.4792C89.8322 13.8246 88.6765 12.5577 87.1704 11.6787C85.6901 10.7996 83.9632 10.3601 81.9896 10.3601C79.964 10.3601 78.1851 10.8126 76.653 11.7175C75.1468 12.6223 73.9782 13.8892 73.1472 15.518C72.3162 17.121 71.9007 19.0083 71.9007 21.1801C71.9007 23.3518 72.3162 25.2521 73.1472 26.8809C73.9782 28.5097 75.1598 29.7765 76.6919 30.6814ZM86.7029 19.241H77.0815C77.2892 17.638 77.8216 16.41 78.6786 15.5568C79.5615 14.7036 80.6652 14.277 81.9896 14.277C83.314 14.277 84.4047 14.6907 85.2616 15.518C86.1186 16.3195 86.599 17.5605 86.7029 19.241Z"></path><path d="M51 10.8255L58.5959 31.5346H64.5168L72.1126 10.8255H66.854L61.5563 26.5319L56.2587 10.8255H51Z"></path><path fill-rule="evenodd" clip-rule="evenodd" d="M105.532 30.6814C107.091 31.5605 108.895 32 110.947 32C112.999 32 114.79 31.5605 116.323 30.6814C117.855 29.7765 119.036 28.5097 119.867 26.8809C120.724 25.2521 121.153 23.3518 121.153 21.1801C121.153 18.9825 120.724 17.0822 119.867 15.4792C119.036 13.8504 117.855 12.5965 116.323 11.7175C114.79 10.8126 112.999 10.3601 110.947 10.3601C108.895 10.3601 107.091 10.8126 105.532 11.7175C104 12.5965 102.806 13.8504 101.949 15.4792C101.118 17.0822 100.702 18.9825 100.702 21.1801C100.702 23.3518 101.118 25.2521 101.949 26.8809C102.806 28.5097 104 29.7765 105.532 30.6814ZM114.648 26.1828C113.791 27.3721 112.557 27.9668 110.947 27.9668C109.337 27.9668 108.09 27.3721 107.207 26.1828C106.325 24.9935 105.883 23.3259 105.883 21.1801C105.883 19.06 106.325 17.4054 107.207 16.2161C108.09 15.0009 109.337 14.3934 110.947 14.3934C112.557 14.3934 113.791 15.0009 114.648 16.2161C115.53 17.4054 115.972 19.06 115.972 21.1801C115.972 23.3259 115.53 24.9935 114.648 26.1828Z"></path><path d="M122.997 10.8255H127.671L127.806 14.7963C128.137 13.6605 128.599 12.7893 129.19 12.1828C130.073 11.2779 131.268 10.8255 132.774 10.8255H134.682V15.0914H132.735C131.67 15.0914 130.787 15.2465 130.086 15.5568C129.385 15.867 128.852 16.3583 128.489 17.0305C128.151 17.6768 127.983 18.53 127.983 19.59V31.5346H122.997V10.8255Z"></path><path fill-rule="evenodd" clip-rule="evenodd" d="M138.912 30.5651C140.185 31.5217 141.769 32 143.665 32C144.859 32 145.911 31.819 146.82 31.4571C147.755 31.0693 148.534 30.5263 149.157 29.8283C149.547 29.409 149.876 28.9384 150.144 28.4165L150.248 31.5346H155V10.8255H150.014V13.7729C149.443 12.687 148.612 11.8467 147.521 11.2521C146.456 10.6574 145.171 10.3601 143.665 10.3601C141.769 10.3601 140.172 10.8513 138.873 11.8338C137.601 12.7904 136.64 14.0831 135.991 15.7119C135.368 17.3407 135.056 19.1634 135.056 21.1801C135.056 23.1967 135.381 25.0323 136.03 26.687C136.679 28.3158 137.64 29.6085 138.912 30.5651ZM147.988 27.0748C147.313 27.6694 146.378 27.9668 145.184 27.9668C144.067 27.9668 143.132 27.6565 142.379 27.036C141.652 26.4155 141.107 25.5882 140.743 24.554C140.406 23.494 140.237 22.3693 140.237 21.1801C140.237 19.9132 140.406 18.7756 140.743 17.7673C141.107 16.7331 141.652 15.9187 142.379 15.3241C143.132 14.7036 144.067 14.3934 145.184 14.3934C146.352 14.3934 147.287 14.6907 147.988 15.2853C148.69 15.88 149.196 16.6944 149.508 17.7285C149.845 18.7368 150.014 19.8874 150.014 21.1801C150.014 22.3952 149.845 23.5328 149.508 24.5928C149.196 25.627 148.69 26.4543 147.988 27.0748Z"></path></g><g fill="url(#paint0_linear_735_12575x)"><path fill-rule="evenodd" clip-rule="evenodd" d="M5.66026 12.7809C5.66026 12.7809 0.72345 4.86563 6.23533 2.10218C9.73217 0.579179 13.2741 1.67174 15.116 2.61529C15.3233 2.70891 15.5057 2.79363 15.6692 2.8696C16.9034 3.44307 17.0649 3.51812 18.7868 3.15809C23.0458 2.1945 27.4504 2.69555 30.6175 4.0097C34.5937 0.221023 43.5168 0.0431004 38.8212 9.68138C38.8212 9.68138 39.7031 10.6679 40.2574 11.4721C40.4054 11.8005 40.2031 12.0989 39.9833 12.423C39.7313 12.7948 39.4563 13.2003 39.6604 13.7238C39.9652 14.5054 40.4449 15.2705 40.996 16.1493C41.6905 17.2569 42.4982 18.5451 43.2122 20.275C44.4927 23.3777 42.6902 28.1771 40.9593 30.9625C37.9944 35.5218 33.0847 33.7058 29.0569 31.7408C28.4876 31.4631 27.7987 31.7169 27.5593 32.2998L25.415 37.5226C25.0749 38.3508 24.1964 38.8353 23.3298 38.5895C17.2243 36.8579 6.84715 30.7486 1.49242 17.6755C1.09816 16.713 1.61675 15.6261 2.54417 15.1437C3.57436 14.608 4.83783 13.8063 5.66026 12.7809ZM40.4126 9.46281C40.7053 9.81498 41.0762 10.2786 41.3757 10.7131L41.4445 10.8129L41.4942 10.9232C41.7727 11.5412 41.6592 12.1128 41.4936 12.5041C41.3748 12.7848 41.1875 13.0577 41.0945 13.1931C41.0818 13.2117 41.0708 13.2276 41.062 13.2407C41.0249 13.2959 40.9978 13.3391 40.9781 13.372C41.2356 13.9837 41.6247 14.6053 42.152 15.4476C42.2211 15.5581 42.2927 15.6724 42.3666 15.7909C43.0204 16.8394 43.7829 18.1103 44.466 19.7655C45.2703 21.7143 45.0615 24.0321 44.5264 26.0759C43.9815 28.1566 43.04 30.1757 42.1125 31.6682L42.1052 31.6799L42.0977 31.6915C41.2369 33.0153 40.1901 33.9394 38.9933 34.4998C37.8031 35.0571 36.5478 35.2157 35.3226 35.1401C33.023 34.9982 30.6753 34.0162 28.7071 33.0676L26.6697 38.0298C26.0992 39.4194 24.5637 40.3378 22.9574 39.8822C16.5108 38.0538 5.77065 31.691 0.237255 18.1817C-0.469183 16.457 0.493697 14.6922 1.91524 13.9529C2.62901 13.5817 3.38764 13.1103 3.99614 12.5701C3.91936 12.4213 3.83708 12.2569 3.75166 12.0789C3.35027 11.2422 2.86347 10.0711 2.56123 8.78265C2.26216 7.50768 2.11837 6.01168 2.51346 4.5812C2.9246 3.09258 3.89677 1.76833 5.62434 0.902192L5.65714 0.885745L5.6908 0.871086C9.70264 -0.87622 13.6841 0.376632 15.707 1.40505C15.9376 1.50937 16.1134 1.59126 16.264 1.66144C16.4298 1.73865 16.5652 1.8017 16.7095 1.86486C16.9527 1.97124 17.0641 2.00479 17.1413 2.01958C17.2845 2.04699 17.4952 2.05381 18.4968 1.84474C22.683 0.900046 27.0069 1.27663 30.3454 2.46369C31.3867 1.64491 32.6115 1.02732 33.8431 0.655827C35.3322 0.206647 36.9715 0.0767641 38.388 0.531151C39.8887 1.01251 41.075 2.1438 41.4118 3.95187C41.6923 5.45778 41.358 7.29679 40.4126 9.46281Z"></path><path d="M32.0663 4.54289C32.914 3.78461 35.6348 2.41543 37.7045 3.13841C35.0735 3.26092 34.4143 5.80617 32.0663 4.54289Z"></path><path d="M5.78532 18.0764C5.37186 16.6812 4.32985 15.2624 2.58065 16.6771C6.15397 25.9463 12.4839 30.8878 12.4839 30.8878C9.11356 27.3778 6.91794 21.4114 5.78532 18.0764Z"></path><path d="M20.5764 24.4459C22.3204 25.9645 25.5982 26.066 30.5329 25.8705C28.2893 27.111 24.6322 27.0702 24.6322 27.0702C26.284 28.1799 29.6758 29.4722 33.17 29.6566C36.6642 29.841 39.229 28.9189 39.2237 25.7864C39.2237 22.5187 33.4979 18.8885 20.5764 24.4459Z"></path><path d="M42.3868 22.4401C41.6891 22.9244 40.8995 24.1556 40.6579 25.6663C39.6087 31.8147 42.8852 25.7322 42.3868 22.4401Z"></path><path d="M29.6606 30.2835C32.3734 31.7135 37.7805 34.1399 39.9274 30.0709L39.7664 29.9051C39.6847 29.8208 39.5579 29.7989 39.4509 29.8481C37.1491 30.9056 33.6727 31.2713 29.6606 30.2835Z"></path><path d="M31.7595 14.2281C32.3953 15.9695 33.1873 17.9797 33.8841 19.2772C34.2726 20.0005 35.0231 20.414 35.8436 20.5082C39.4057 20.917 40.5224 20.5888 41.2242 20.2713C41.5411 20.1279 41.7132 19.773 41.5193 19.4858C41.5193 19.4858 38.7557 14.9197 37.3894 13.1396C36.6402 12.0518 35.7511 10.9273 38.1432 10.9698C31.5135 4.1627 25.4427 3.07132 18.3859 4.60737C17.0137 4.87495 16.2646 4.67873 14.8444 3.97111C13.3283 3.20999 11.1711 2.34778 8.38464 2.83534C10.3673 4.12042 12.0103 6.141 13.1588 7.90386C14.6001 10.1163 17.0439 11.7413 19.6914 11.5459L26.6103 11.0353C28.7692 10.876 31.022 12.2084 31.7595 14.2281Z"></path><path d="M22.3994 12.7023L17.1532 13.0153C7.04402 13.7614 12.1048 24.9872 24.4281 21.6331C31.1069 19.8153 32.1777 18.6114 30.7624 15.3763C30.5459 14.9896 30.1146 14.7699 29.6691 14.787C26.3688 14.9134 24.4986 14.1223 23.7756 13.3876C23.4066 13.0126 22.9266 12.6709 22.3994 12.7023Z"></path></g><defs><linearGradient id="paint0_linear_735_12575x" x1="41.5" y1="-2.5" x2="17" y2="29.5" gradientUnits="userSpaceOnUse"><stop stop-color="#FF8800"></stop><stop offset="1" stop-color="#FF4800"></stop></linearGradient></defs></svg>